<svg xmlns="http://www.w3.org/2000/svg" width="32" height="32"><symbol id="icon-favorite" viewBox="0 0 32 32"><path fill="#f87719" style="fill:var(--color1,#f87719)" d="m16 30.575-2.24-2.218C5.44 21.07 0 16.159 0 10.139c0-4.911 3.84-8.713 8.8-8.713 2.72 0 5.44 1.267 7.2 3.327 1.76-2.059 4.48-3.327 7.2-3.327 4.96 0 8.8 3.802 8.8 8.713 0 6.02-5.44 10.931-13.76 18.218L16 30.575z"/></symbol><symbol id="icon-search" viewBox="0 0 32 32"><path d="m31.008 27.231-7.58-6.447c-.784-.705-1.622-1.029-2.299-.998a11.954 11.954 0 0 0 2.87-7.787c0-6.627-5.373-12-12-12s-12 5.373-12 12 5.373 12 12 12c2.972 0 5.691-1.081 7.787-2.87-.031.677.293 1.515.998 2.299l6.447 7.58c1.104 1.226 2.907 1.33 4.007.23s.997-2.903-.23-4.007zM12 20a8 8 0 1 1 0-16 8 8 0 0 1 0 16z"/></symbol><symbol id="icon-arrow-dark" viewBox="0 0 32 32"><path fill="none" stroke="#b7b7b7" style="stroke:var(--color1,#b7b7b7)" stroke-linejoin="round" stroke-linecap="round" stroke-width="2.286" d="m20.5 7-9 9 9 9"/></symbol><symbol id="icon-arrow-light" viewBox="0 0 32 32"><path fill="#f8f8f8" stroke="#f8f8f8" style="stroke:var(--color2,#f8f8f8)" stroke-linejoin="round" stroke-linecap="round" stroke-width="2.286" d="m11.5 7 9 9-9 9"/><symbol id="modaltrailerclose" viewBox="0 0 24 24"><path d="M17.25 17.25 6.75 6.75m10.5 0-10.5 10.5" stroke="#fff" stroke-linecap="round" stroke-linejoin="round"/></symbol></symbol></svg>