<svg aria-hidden="true" style="position: absolute; width: 0; height: 0; overflow: hidden;" version="1.1" xmlns="http://www.w3.org/2000/svg" xmlns:xlink="http://www.w3.org/1999/xlink">
<defs>
<symbol id="icon-Frame-75-1" viewBox="0 0 197 32">
<path d="M24.626 30c-0.001 0-0.002 0-0.003 0-0.219 0-0.421-0.070-0.585-0.189l0.003 0.002-8.041-5.829-8.039 5.829c-0.163 0.12-0.367 0.192-0.588 0.192-0.552 0-0.999-0.447-0.999-0.999 0-0.115 0.019-0.226 0.055-0.329l-0.002 0.007 3.134-9.287-8.121-5.573c-0.262-0.183-0.431-0.483-0.431-0.823 0-0.55 0.444-0.997 0.993-1.001h10.021l3.026-9.31c0.133-0.405 0.509-0.693 0.951-0.693s0.818 0.288 0.949 0.686l0.002 0.007 3.026 9.312h10.025c0.002 0 0.003 0 0.005 0 0.552 0 0.999 0.447 0.999 0.999 0 0.343-0.173 0.645-0.436 0.825l-0.003 0.002-8.128 5.568 3.134 9.282c0.033 0.095 0.053 0.205 0.053 0.32 0 0.552-0.447 1-0.999 1.001h-0z"></path>
<path d="M65.769 30c-0.001 0-0.003 0-0.005 0-0.219 0-0.421-0.070-0.585-0.189l0.003 0.002-8.037-5.829-8.039 5.829c-0.163 0.12-0.367 0.192-0.588 0.192-0.552 0-0.999-0.447-0.999-0.999 0-0.115 0.020-0.226 0.055-0.329l-0.002 0.007 3.134-9.287-8.123-5.573c-0.265-0.182-0.436-0.484-0.436-0.825 0-0.551 0.447-0.998 0.998-0.999h10.023l3.026-9.31c0.136-0.403 0.51-0.688 0.951-0.688s0.815 0.285 0.949 0.681l0.002 0.007 3.024 9.312h10.025c0.001 0 0.003 0 0.005 0 0.552 0 0.999 0.447 0.999 0.999 0 0.343-0.173 0.645-0.436 0.825l-0.003 0.002-8.128 5.568 3.134 9.282c0.033 0.095 0.053 0.205 0.053 0.32 0 0.552-0.447 1-0.999 1.001h-0z"></path>
<path d="M106.912 30c-0.001 0-0.003 0-0.005 0-0.219 0-0.421-0.070-0.585-0.189l0.003 0.002-8.037-5.829-8.039 5.829c-0.163 0.12-0.367 0.192-0.588 0.192-0.552 0-0.999-0.447-0.999-0.999 0-0.115 0.019-0.226 0.055-0.329l-0.002 0.007 3.134-9.287-8.123-5.573c-0.265-0.182-0.436-0.484-0.436-0.825 0-0.551 0.447-0.998 0.998-0.999h10.023l3.026-9.31c0.136-0.403 0.51-0.688 0.951-0.688s0.815 0.285 0.949 0.681l0.002 0.007 3.024 9.312h10.025c0.001 0 0.003 0 0.005 0 0.552 0 0.999 0.447 0.999 0.999 0 0.343-0.173 0.645-0.436 0.825l-0.003 0.002-8.128 5.568 3.134 9.282c0.033 0.095 0.053 0.205 0.053 0.32 0 0.552-0.447 1-0.999 1.001h-0z"></path>
<path d="M148.055 30c-0.001 0-0.003 0-0.005 0-0.219 0-0.421-0.070-0.585-0.189l0.003 0.002-8.037-5.829-8.039 5.829c-0.163 0.12-0.367 0.192-0.588 0.192-0.552 0-0.999-0.447-0.999-0.999 0-0.115 0.019-0.226 0.055-0.329l-0.002 0.007 3.134-9.287-8.123-5.573c-0.265-0.182-0.436-0.484-0.436-0.825 0-0.551 0.447-0.998 0.998-0.999h10.023l3.026-9.31c0.136-0.403 0.51-0.688 0.951-0.688s0.815 0.285 0.949 0.681l0.002 0.007 3.024 9.312h10.025c0.001 0 0.003 0 0.005 0 0.552 0 0.999 0.447 0.999 0.999 0 0.343-0.173 0.645-0.436 0.825l-0.003 0.002-8.128 5.568 3.134 9.282c0.033 0.095 0.053 0.205 0.053 0.32 0 0.552-0.447 1-0.999 1.001h-0z"></path>
<path d="M189.198 30c-0.001 0-0.003 0-0.005 0-0.219 0-0.421-0.070-0.585-0.189l0.003 0.002-8.037-5.829-8.039 5.829c-0.163 0.12-0.367 0.192-0.588 0.192-0.552 0-0.999-0.447-0.999-0.999 0-0.115 0.019-0.226 0.055-0.329l-0.002 0.007 3.134-9.287-8.123-5.573c-0.265-0.182-0.436-0.484-0.436-0.825 0-0.551 0.447-0.998 0.998-0.999h10.023l3.026-9.31c0.136-0.403 0.51-0.688 0.951-0.688s0.815 0.285 0.949 0.681l0.002 0.007 3.024 9.312h10.025c0.001 0 0.003 0 0.005 0 0.552 0 0.999 0.447 0.999 0.999 0 0.343-0.173 0.645-0.436 0.825l-0.003 0.002-8.128 5.568 3.134 9.282c0.033 0.095 0.053 0.205 0.053 0.32 0 0.552-0.447 1-0.999 1.001h-0z"></path>
</symbol>
</defs>
</svg>
